<mxfile host="Electron" modified="2023-11-21T06:01:35.337Z" agent="Mozilla/5.0 (Windows NT 10.0; Win64; x64) AppleWebKit/537.36 (KHTML, like Gecko) draw.io/22.0.3 Chrome/114.0.5735.289 Electron/25.8.4 Safari/537.36" etag="h13JU7AkkFJg7hqtGscl" version="22.0.3" type="device" pages="5">
  <diagram name="Page-1" id="QBls4nuXTcroGN4LdgdU">
    <mxGraphModel dx="1036" dy="614" grid="1" gridSize="10" guides="1" tooltips="1" connect="1" arrows="1" fold="1" page="1" pageScale="1" pageWidth="850" pageHeight="1100" math="0" shadow="0">
      <root>
        <mxCell id="0" />
        <mxCell id="1" parent="0" />
        <mxCell id="VYTvKjLpvc9mexRWE3Gn-3" value="" style="edgeStyle=orthogonalEdgeStyle;rounded=0;orthogonalLoop=1;jettySize=auto;html=1;" parent="1" source="VYTvKjLpvc9mexRWE3Gn-1" target="VYTvKjLpvc9mexRWE3Gn-2" edge="1">
          <mxGeometry relative="1" as="geometry" />
        </mxCell>
        <mxCell id="VYTvKjLpvc9mexRWE3Gn-1" value="start" style="ellipse;whiteSpace=wrap;html=1;" parent="1" vertex="1">
          <mxGeometry x="370" y="70" width="120" height="80" as="geometry" />
        </mxCell>
        <mxCell id="VYTvKjLpvc9mexRWE3Gn-5" value="" style="edgeStyle=orthogonalEdgeStyle;rounded=0;orthogonalLoop=1;jettySize=auto;html=1;" parent="1" source="VYTvKjLpvc9mexRWE3Gn-2" target="VYTvKjLpvc9mexRWE3Gn-4" edge="1">
          <mxGeometry relative="1" as="geometry" />
        </mxCell>
        <mxCell id="VYTvKjLpvc9mexRWE3Gn-2" value="n,i,max,min,numbers[n]" style="shape=parallelogram;perimeter=parallelogramPerimeter;whiteSpace=wrap;html=1;fixedSize=1;" parent="1" vertex="1">
          <mxGeometry x="355" y="210" width="150" height="40" as="geometry" />
        </mxCell>
        <mxCell id="VYTvKjLpvc9mexRWE3Gn-7" value="" style="edgeStyle=orthogonalEdgeStyle;rounded=0;orthogonalLoop=1;jettySize=auto;html=1;" parent="1" source="VYTvKjLpvc9mexRWE3Gn-4" target="VYTvKjLpvc9mexRWE3Gn-6" edge="1">
          <mxGeometry relative="1" as="geometry" />
        </mxCell>
        <mxCell id="VYTvKjLpvc9mexRWE3Gn-4" value="nhap so luong phan tu co trong mang va nhap gia tri" style="whiteSpace=wrap;html=1;" parent="1" vertex="1">
          <mxGeometry x="360" y="280" width="140" height="60" as="geometry" />
        </mxCell>
        <mxCell id="VYTvKjLpvc9mexRWE3Gn-13" value="" style="edgeStyle=orthogonalEdgeStyle;rounded=0;orthogonalLoop=1;jettySize=auto;html=1;" parent="1" source="VYTvKjLpvc9mexRWE3Gn-6" target="VYTvKjLpvc9mexRWE3Gn-12" edge="1">
          <mxGeometry relative="1" as="geometry" />
        </mxCell>
        <mxCell id="VYTvKjLpvc9mexRWE3Gn-6" value="max=numbers[0]&lt;br&gt;min=numbers[0]" style="whiteSpace=wrap;html=1;" parent="1" vertex="1">
          <mxGeometry x="370" y="370" width="120" height="60" as="geometry" />
        </mxCell>
        <mxCell id="VYTvKjLpvc9mexRWE3Gn-15" value="" style="edgeStyle=orthogonalEdgeStyle;rounded=0;orthogonalLoop=1;jettySize=auto;html=1;" parent="1" source="VYTvKjLpvc9mexRWE3Gn-12" target="VYTvKjLpvc9mexRWE3Gn-14" edge="1">
          <mxGeometry relative="1" as="geometry" />
        </mxCell>
        <mxCell id="VYTvKjLpvc9mexRWE3Gn-17" value="" style="edgeStyle=orthogonalEdgeStyle;rounded=0;orthogonalLoop=1;jettySize=auto;html=1;" parent="1" source="VYTvKjLpvc9mexRWE3Gn-12" target="VYTvKjLpvc9mexRWE3Gn-16" edge="1">
          <mxGeometry relative="1" as="geometry" />
        </mxCell>
        <mxCell id="VYTvKjLpvc9mexRWE3Gn-12" value="i=1" style="whiteSpace=wrap;html=1;" parent="1" vertex="1">
          <mxGeometry x="370" y="460" width="120" height="60" as="geometry" />
        </mxCell>
        <mxCell id="VYTvKjLpvc9mexRWE3Gn-20" value="" style="edgeStyle=orthogonalEdgeStyle;rounded=0;orthogonalLoop=1;jettySize=auto;html=1;" parent="1" source="VYTvKjLpvc9mexRWE3Gn-14" target="VYTvKjLpvc9mexRWE3Gn-19" edge="1">
          <mxGeometry relative="1" as="geometry" />
        </mxCell>
        <mxCell id="VYTvKjLpvc9mexRWE3Gn-21" value="true" style="edgeLabel;html=1;align=center;verticalAlign=middle;resizable=0;points=[];" parent="VYTvKjLpvc9mexRWE3Gn-20" vertex="1" connectable="0">
          <mxGeometry x="-0.095" y="2" relative="1" as="geometry">
            <mxPoint as="offset" />
          </mxGeometry>
        </mxCell>
        <mxCell id="VYTvKjLpvc9mexRWE3Gn-39" style="edgeStyle=orthogonalEdgeStyle;rounded=0;orthogonalLoop=1;jettySize=auto;html=1;exitX=1;exitY=0.5;exitDx=0;exitDy=0;" parent="1" source="VYTvKjLpvc9mexRWE3Gn-14" target="VYTvKjLpvc9mexRWE3Gn-27" edge="1">
          <mxGeometry relative="1" as="geometry">
            <Array as="points">
              <mxPoint x="370" y="560" />
              <mxPoint x="370" y="840" />
            </Array>
          </mxGeometry>
        </mxCell>
        <mxCell id="VYTvKjLpvc9mexRWE3Gn-40" value="false" style="edgeLabel;html=1;align=center;verticalAlign=middle;resizable=0;points=[];" parent="VYTvKjLpvc9mexRWE3Gn-39" vertex="1" connectable="0">
          <mxGeometry x="-0.2265" relative="1" as="geometry">
            <mxPoint as="offset" />
          </mxGeometry>
        </mxCell>
        <mxCell id="VYTvKjLpvc9mexRWE3Gn-14" value="max&amp;lt;numbers[i]" style="rhombus;whiteSpace=wrap;html=1;" parent="1" vertex="1">
          <mxGeometry x="220" y="530" width="135" height="60" as="geometry" />
        </mxCell>
        <mxCell id="VYTvKjLpvc9mexRWE3Gn-23" value="" style="edgeStyle=orthogonalEdgeStyle;rounded=0;orthogonalLoop=1;jettySize=auto;html=1;" parent="1" source="VYTvKjLpvc9mexRWE3Gn-16" target="VYTvKjLpvc9mexRWE3Gn-22" edge="1">
          <mxGeometry relative="1" as="geometry" />
        </mxCell>
        <mxCell id="VYTvKjLpvc9mexRWE3Gn-24" value="true" style="edgeLabel;html=1;align=center;verticalAlign=middle;resizable=0;points=[];" parent="VYTvKjLpvc9mexRWE3Gn-23" vertex="1" connectable="0">
          <mxGeometry x="0.005" y="2" relative="1" as="geometry">
            <mxPoint as="offset" />
          </mxGeometry>
        </mxCell>
        <mxCell id="VYTvKjLpvc9mexRWE3Gn-41" style="edgeStyle=orthogonalEdgeStyle;rounded=0;orthogonalLoop=1;jettySize=auto;html=1;exitX=0;exitY=0.5;exitDx=0;exitDy=0;" parent="1" source="VYTvKjLpvc9mexRWE3Gn-16" target="VYTvKjLpvc9mexRWE3Gn-25" edge="1">
          <mxGeometry relative="1" as="geometry">
            <Array as="points">
              <mxPoint x="490" y="560" />
              <mxPoint x="490" y="840" />
            </Array>
          </mxGeometry>
        </mxCell>
        <mxCell id="VYTvKjLpvc9mexRWE3Gn-42" value="false" style="edgeLabel;html=1;align=center;verticalAlign=middle;resizable=0;points=[];" parent="VYTvKjLpvc9mexRWE3Gn-41" vertex="1" connectable="0">
          <mxGeometry x="-0.0981" y="3" relative="1" as="geometry">
            <mxPoint as="offset" />
          </mxGeometry>
        </mxCell>
        <mxCell id="VYTvKjLpvc9mexRWE3Gn-16" value="min&amp;gt;numbers[i]" style="rhombus;whiteSpace=wrap;html=1;" parent="1" vertex="1">
          <mxGeometry x="500" y="530" width="140" height="60" as="geometry" />
        </mxCell>
        <mxCell id="VYTvKjLpvc9mexRWE3Gn-28" value="" style="edgeStyle=orthogonalEdgeStyle;rounded=0;orthogonalLoop=1;jettySize=auto;html=1;" parent="1" source="VYTvKjLpvc9mexRWE3Gn-19" target="VYTvKjLpvc9mexRWE3Gn-27" edge="1">
          <mxGeometry relative="1" as="geometry" />
        </mxCell>
        <mxCell id="VYTvKjLpvc9mexRWE3Gn-19" value="max=numbed[i]" style="whiteSpace=wrap;html=1;" parent="1" vertex="1">
          <mxGeometry x="227.5" y="670" width="120" height="60" as="geometry" />
        </mxCell>
        <mxCell id="VYTvKjLpvc9mexRWE3Gn-26" value="" style="edgeStyle=orthogonalEdgeStyle;rounded=0;orthogonalLoop=1;jettySize=auto;html=1;" parent="1" source="VYTvKjLpvc9mexRWE3Gn-22" target="VYTvKjLpvc9mexRWE3Gn-25" edge="1">
          <mxGeometry relative="1" as="geometry" />
        </mxCell>
        <mxCell id="VYTvKjLpvc9mexRWE3Gn-22" value="&lt;span style=&quot;color: rgb(0, 0, 0); font-family: Helvetica; font-size: 12px; font-style: normal; font-variant-ligatures: normal; font-variant-caps: normal; font-weight: 400; letter-spacing: normal; orphans: 2; text-align: center; text-indent: 0px; text-transform: none; widows: 2; word-spacing: 0px; -webkit-text-stroke-width: 0px; background-color: rgb(251, 251, 251); text-decoration-thickness: initial; text-decoration-style: initial; text-decoration-color: initial; float: none; display: inline !important;&quot;&gt;min=numbers[i]&lt;/span&gt;" style="whiteSpace=wrap;html=1;" parent="1" vertex="1">
          <mxGeometry x="510" y="670" width="120" height="60" as="geometry" />
        </mxCell>
        <mxCell id="VYTvKjLpvc9mexRWE3Gn-35" style="edgeStyle=orthogonalEdgeStyle;rounded=0;orthogonalLoop=1;jettySize=auto;html=1;exitX=0.5;exitY=1;exitDx=0;exitDy=0;" parent="1" source="VYTvKjLpvc9mexRWE3Gn-25" target="VYTvKjLpvc9mexRWE3Gn-34" edge="1">
          <mxGeometry relative="1" as="geometry" />
        </mxCell>
        <mxCell id="VYTvKjLpvc9mexRWE3Gn-25" value="i++" style="whiteSpace=wrap;html=1;" parent="1" vertex="1">
          <mxGeometry x="510" y="810" width="120" height="60" as="geometry" />
        </mxCell>
        <mxCell id="VYTvKjLpvc9mexRWE3Gn-36" style="edgeStyle=orthogonalEdgeStyle;rounded=0;orthogonalLoop=1;jettySize=auto;html=1;exitX=0.5;exitY=1;exitDx=0;exitDy=0;" parent="1" source="VYTvKjLpvc9mexRWE3Gn-27" target="VYTvKjLpvc9mexRWE3Gn-30" edge="1">
          <mxGeometry relative="1" as="geometry" />
        </mxCell>
        <mxCell id="VYTvKjLpvc9mexRWE3Gn-27" value="i++" style="whiteSpace=wrap;html=1;" parent="1" vertex="1">
          <mxGeometry x="227.5" y="810" width="120" height="60" as="geometry" />
        </mxCell>
        <mxCell id="VYTvKjLpvc9mexRWE3Gn-37" style="edgeStyle=orthogonalEdgeStyle;rounded=0;orthogonalLoop=1;jettySize=auto;html=1;exitX=0;exitY=0.5;exitDx=0;exitDy=0;" parent="1" source="VYTvKjLpvc9mexRWE3Gn-30" target="VYTvKjLpvc9mexRWE3Gn-14" edge="1">
          <mxGeometry relative="1" as="geometry">
            <Array as="points">
              <mxPoint x="210" y="940" />
              <mxPoint x="210" y="560" />
            </Array>
          </mxGeometry>
        </mxCell>
        <mxCell id="VYTvKjLpvc9mexRWE3Gn-44" value="true" style="edgeLabel;html=1;align=center;verticalAlign=middle;resizable=0;points=[];" parent="VYTvKjLpvc9mexRWE3Gn-37" vertex="1" connectable="0">
          <mxGeometry x="0.0673" y="1" relative="1" as="geometry">
            <mxPoint as="offset" />
          </mxGeometry>
        </mxCell>
        <mxCell id="VYTvKjLpvc9mexRWE3Gn-47" style="edgeStyle=orthogonalEdgeStyle;rounded=0;orthogonalLoop=1;jettySize=auto;html=1;exitX=1;exitY=0.5;exitDx=0;exitDy=0;" parent="1" source="VYTvKjLpvc9mexRWE3Gn-30" target="VYTvKjLpvc9mexRWE3Gn-45" edge="1">
          <mxGeometry relative="1" as="geometry" />
        </mxCell>
        <mxCell id="VYTvKjLpvc9mexRWE3Gn-30" value="i&amp;lt;n" style="rhombus;whiteSpace=wrap;html=1;" parent="1" vertex="1">
          <mxGeometry x="245" y="900" width="85" height="80" as="geometry" />
        </mxCell>
        <mxCell id="VYTvKjLpvc9mexRWE3Gn-38" style="edgeStyle=orthogonalEdgeStyle;rounded=0;orthogonalLoop=1;jettySize=auto;html=1;exitX=1;exitY=0.5;exitDx=0;exitDy=0;" parent="1" source="VYTvKjLpvc9mexRWE3Gn-34" target="VYTvKjLpvc9mexRWE3Gn-16" edge="1">
          <mxGeometry relative="1" as="geometry">
            <Array as="points">
              <mxPoint x="650" y="940" />
              <mxPoint x="650" y="560" />
            </Array>
          </mxGeometry>
        </mxCell>
        <mxCell id="VYTvKjLpvc9mexRWE3Gn-43" value="true" style="edgeLabel;html=1;align=center;verticalAlign=middle;resizable=0;points=[];" parent="VYTvKjLpvc9mexRWE3Gn-38" vertex="1" connectable="0">
          <mxGeometry x="0.0821" relative="1" as="geometry">
            <mxPoint as="offset" />
          </mxGeometry>
        </mxCell>
        <mxCell id="VYTvKjLpvc9mexRWE3Gn-46" style="edgeStyle=orthogonalEdgeStyle;rounded=0;orthogonalLoop=1;jettySize=auto;html=1;exitX=0;exitY=0.5;exitDx=0;exitDy=0;" parent="1" source="VYTvKjLpvc9mexRWE3Gn-34" target="VYTvKjLpvc9mexRWE3Gn-45" edge="1">
          <mxGeometry relative="1" as="geometry" />
        </mxCell>
        <mxCell id="VYTvKjLpvc9mexRWE3Gn-34" value="i&amp;lt;n" style="rhombus;whiteSpace=wrap;html=1;" parent="1" vertex="1">
          <mxGeometry x="527.5" y="900" width="85" height="80" as="geometry" />
        </mxCell>
        <mxCell id="VYTvKjLpvc9mexRWE3Gn-49" value="" style="edgeStyle=orthogonalEdgeStyle;rounded=0;orthogonalLoop=1;jettySize=auto;html=1;" parent="1" source="VYTvKjLpvc9mexRWE3Gn-45" target="VYTvKjLpvc9mexRWE3Gn-48" edge="1">
          <mxGeometry relative="1" as="geometry" />
        </mxCell>
        <mxCell id="VYTvKjLpvc9mexRWE3Gn-45" value="min&lt;br&gt;max" style="shape=parallelogram;perimeter=parallelogramPerimeter;whiteSpace=wrap;html=1;fixedSize=1;" parent="1" vertex="1">
          <mxGeometry x="370" y="910" width="120" height="60" as="geometry" />
        </mxCell>
        <mxCell id="VYTvKjLpvc9mexRWE3Gn-48" value="end" style="ellipse;whiteSpace=wrap;html=1;" parent="1" vertex="1">
          <mxGeometry x="365" y="1000" width="130" height="80" as="geometry" />
        </mxCell>
      </root>
    </mxGraphModel>
  </diagram>
  <diagram id="Wi-GEvJYqSvn6JXf-_tQ" name="Page-2">
    <mxGraphModel dx="1050" dy="629" grid="1" gridSize="10" guides="1" tooltips="1" connect="1" arrows="1" fold="1" page="1" pageScale="1" pageWidth="850" pageHeight="1100" math="0" shadow="0">
      <root>
        <mxCell id="0" />
        <mxCell id="1" parent="0" />
        <mxCell id="eD_aYgl7-XiFJ6xaqeSo-3" value="" style="edgeStyle=orthogonalEdgeStyle;rounded=0;orthogonalLoop=1;jettySize=auto;html=1;" edge="1" parent="1" source="eD_aYgl7-XiFJ6xaqeSo-1" target="eD_aYgl7-XiFJ6xaqeSo-2">
          <mxGeometry relative="1" as="geometry" />
        </mxCell>
        <mxCell id="eD_aYgl7-XiFJ6xaqeSo-1" value="start" style="ellipse;whiteSpace=wrap;html=1;" vertex="1" parent="1">
          <mxGeometry x="365" y="20" width="120" height="60" as="geometry" />
        </mxCell>
        <mxCell id="eD_aYgl7-XiFJ6xaqeSo-5" value="" style="edgeStyle=orthogonalEdgeStyle;rounded=0;orthogonalLoop=1;jettySize=auto;html=1;" edge="1" parent="1" source="eD_aYgl7-XiFJ6xaqeSo-2" target="eD_aYgl7-XiFJ6xaqeSo-4">
          <mxGeometry relative="1" as="geometry" />
        </mxCell>
        <mxCell id="eD_aYgl7-XiFJ6xaqeSo-2" value="n,m,i,j,sum=0" style="shape=parallelogram;perimeter=parallelogramPerimeter;whiteSpace=wrap;html=1;fixedSize=1;" vertex="1" parent="1">
          <mxGeometry x="365" y="120" width="120" height="60" as="geometry" />
        </mxCell>
        <mxCell id="eD_aYgl7-XiFJ6xaqeSo-7" value="" style="edgeStyle=orthogonalEdgeStyle;rounded=0;orthogonalLoop=1;jettySize=auto;html=1;" edge="1" parent="1" source="eD_aYgl7-XiFJ6xaqeSo-4" target="eD_aYgl7-XiFJ6xaqeSo-6">
          <mxGeometry relative="1" as="geometry" />
        </mxCell>
        <mxCell id="eD_aYgl7-XiFJ6xaqeSo-4" value="nhap so hang so cot&lt;br&gt;va gia tri cac phan tu cua mang" style="whiteSpace=wrap;html=1;" vertex="1" parent="1">
          <mxGeometry x="365" y="220" width="120" height="60" as="geometry" />
        </mxCell>
        <mxCell id="eD_aYgl7-XiFJ6xaqeSo-9" value="" style="edgeStyle=orthogonalEdgeStyle;rounded=0;orthogonalLoop=1;jettySize=auto;html=1;" edge="1" parent="1" source="eD_aYgl7-XiFJ6xaqeSo-6" target="eD_aYgl7-XiFJ6xaqeSo-8">
          <mxGeometry relative="1" as="geometry" />
        </mxCell>
        <mxCell id="eD_aYgl7-XiFJ6xaqeSo-6" value="i=0&lt;br&gt;j=0" style="whiteSpace=wrap;html=1;" vertex="1" parent="1">
          <mxGeometry x="365" y="320" width="120" height="60" as="geometry" />
        </mxCell>
        <mxCell id="eD_aYgl7-XiFJ6xaqeSo-11" value="" style="edgeStyle=orthogonalEdgeStyle;rounded=0;orthogonalLoop=1;jettySize=auto;html=1;" edge="1" parent="1" source="eD_aYgl7-XiFJ6xaqeSo-8" target="eD_aYgl7-XiFJ6xaqeSo-10">
          <mxGeometry relative="1" as="geometry" />
        </mxCell>
        <mxCell id="eD_aYgl7-XiFJ6xaqeSo-21" style="edgeStyle=orthogonalEdgeStyle;rounded=0;orthogonalLoop=1;jettySize=auto;html=1;exitX=1;exitY=0.5;exitDx=0;exitDy=0;" edge="1" parent="1" source="eD_aYgl7-XiFJ6xaqeSo-8" target="eD_aYgl7-XiFJ6xaqeSo-16">
          <mxGeometry relative="1" as="geometry">
            <Array as="points">
              <mxPoint x="500" y="435" />
              <mxPoint x="500" y="700" />
            </Array>
          </mxGeometry>
        </mxCell>
        <mxCell id="eD_aYgl7-XiFJ6xaqeSo-22" value="false" style="edgeLabel;html=1;align=center;verticalAlign=middle;resizable=0;points=[];" vertex="1" connectable="0" parent="eD_aYgl7-XiFJ6xaqeSo-21">
          <mxGeometry x="-0.0377" relative="1" as="geometry">
            <mxPoint as="offset" />
          </mxGeometry>
        </mxCell>
        <mxCell id="eD_aYgl7-XiFJ6xaqeSo-8" value="numbers[i][j]%2==0" style="rhombus;whiteSpace=wrap;html=1;" vertex="1" parent="1">
          <mxGeometry x="358" y="410" width="135" height="50" as="geometry" />
        </mxCell>
        <mxCell id="eD_aYgl7-XiFJ6xaqeSo-13" value="" style="edgeStyle=orthogonalEdgeStyle;rounded=0;orthogonalLoop=1;jettySize=auto;html=1;" edge="1" parent="1" source="eD_aYgl7-XiFJ6xaqeSo-10" target="eD_aYgl7-XiFJ6xaqeSo-12">
          <mxGeometry relative="1" as="geometry" />
        </mxCell>
        <mxCell id="eD_aYgl7-XiFJ6xaqeSo-10" value="in ra man hinh numbers[i][j]" style="whiteSpace=wrap;html=1;" vertex="1" parent="1">
          <mxGeometry x="365.5" y="490" width="120" height="60" as="geometry" />
        </mxCell>
        <mxCell id="eD_aYgl7-XiFJ6xaqeSo-17" style="edgeStyle=orthogonalEdgeStyle;rounded=0;orthogonalLoop=1;jettySize=auto;html=1;exitX=0.5;exitY=1;exitDx=0;exitDy=0;" edge="1" parent="1" source="eD_aYgl7-XiFJ6xaqeSo-12" target="eD_aYgl7-XiFJ6xaqeSo-16">
          <mxGeometry relative="1" as="geometry" />
        </mxCell>
        <mxCell id="eD_aYgl7-XiFJ6xaqeSo-12" value="sum+=numbers[i][j]" style="whiteSpace=wrap;html=1;" vertex="1" parent="1">
          <mxGeometry x="365" y="580" width="120" height="60" as="geometry" />
        </mxCell>
        <mxCell id="eD_aYgl7-XiFJ6xaqeSo-19" style="edgeStyle=orthogonalEdgeStyle;rounded=0;orthogonalLoop=1;jettySize=auto;html=1;exitX=0;exitY=0.5;exitDx=0;exitDy=0;" edge="1" parent="1" source="eD_aYgl7-XiFJ6xaqeSo-14" target="eD_aYgl7-XiFJ6xaqeSo-8">
          <mxGeometry relative="1" as="geometry">
            <Array as="points">
              <mxPoint x="350" y="780" />
              <mxPoint x="350" y="435" />
            </Array>
          </mxGeometry>
        </mxCell>
        <mxCell id="eD_aYgl7-XiFJ6xaqeSo-20" value="true" style="edgeLabel;html=1;align=center;verticalAlign=middle;resizable=0;points=[];" vertex="1" connectable="0" parent="eD_aYgl7-XiFJ6xaqeSo-19">
          <mxGeometry x="0.1876" y="4" relative="1" as="geometry">
            <mxPoint as="offset" />
          </mxGeometry>
        </mxCell>
        <mxCell id="eD_aYgl7-XiFJ6xaqeSo-24" value="" style="edgeStyle=orthogonalEdgeStyle;rounded=0;orthogonalLoop=1;jettySize=auto;html=1;" edge="1" parent="1" source="eD_aYgl7-XiFJ6xaqeSo-14" target="eD_aYgl7-XiFJ6xaqeSo-23">
          <mxGeometry relative="1" as="geometry" />
        </mxCell>
        <mxCell id="eD_aYgl7-XiFJ6xaqeSo-25" value="false" style="edgeLabel;html=1;align=center;verticalAlign=middle;resizable=0;points=[];" vertex="1" connectable="0" parent="eD_aYgl7-XiFJ6xaqeSo-24">
          <mxGeometry x="-0.02" relative="1" as="geometry">
            <mxPoint as="offset" />
          </mxGeometry>
        </mxCell>
        <mxCell id="eD_aYgl7-XiFJ6xaqeSo-14" value="j&amp;lt;m" style="rhombus;whiteSpace=wrap;html=1;" vertex="1" parent="1">
          <mxGeometry x="385" y="750" width="80" height="60" as="geometry" />
        </mxCell>
        <mxCell id="eD_aYgl7-XiFJ6xaqeSo-18" style="edgeStyle=orthogonalEdgeStyle;rounded=0;orthogonalLoop=1;jettySize=auto;html=1;exitX=0.5;exitY=1;exitDx=0;exitDy=0;" edge="1" parent="1" source="eD_aYgl7-XiFJ6xaqeSo-16" target="eD_aYgl7-XiFJ6xaqeSo-14">
          <mxGeometry relative="1" as="geometry" />
        </mxCell>
        <mxCell id="eD_aYgl7-XiFJ6xaqeSo-16" value="j++" style="rounded=0;whiteSpace=wrap;html=1;" vertex="1" parent="1">
          <mxGeometry x="365" y="670" width="120" height="60" as="geometry" />
        </mxCell>
        <mxCell id="eD_aYgl7-XiFJ6xaqeSo-27" value="" style="edgeStyle=orthogonalEdgeStyle;rounded=0;orthogonalLoop=1;jettySize=auto;html=1;" edge="1" parent="1" source="eD_aYgl7-XiFJ6xaqeSo-23" target="eD_aYgl7-XiFJ6xaqeSo-26">
          <mxGeometry relative="1" as="geometry" />
        </mxCell>
        <mxCell id="eD_aYgl7-XiFJ6xaqeSo-23" value="i++&lt;br&gt;j=0" style="whiteSpace=wrap;html=1;" vertex="1" parent="1">
          <mxGeometry x="365" y="850" width="120" height="60" as="geometry" />
        </mxCell>
        <mxCell id="eD_aYgl7-XiFJ6xaqeSo-28" style="edgeStyle=orthogonalEdgeStyle;rounded=0;orthogonalLoop=1;jettySize=auto;html=1;exitX=0;exitY=0.5;exitDx=0;exitDy=0;" edge="1" parent="1" source="eD_aYgl7-XiFJ6xaqeSo-26" target="eD_aYgl7-XiFJ6xaqeSo-8">
          <mxGeometry relative="1" as="geometry">
            <Array as="points">
              <mxPoint x="320" y="980" />
              <mxPoint x="320" y="435" />
            </Array>
          </mxGeometry>
        </mxCell>
        <mxCell id="eD_aYgl7-XiFJ6xaqeSo-29" value="true" style="edgeLabel;html=1;align=center;verticalAlign=middle;resizable=0;points=[];" vertex="1" connectable="0" parent="eD_aYgl7-XiFJ6xaqeSo-28">
          <mxGeometry x="0.0043" y="1" relative="1" as="geometry">
            <mxPoint as="offset" />
          </mxGeometry>
        </mxCell>
        <mxCell id="eD_aYgl7-XiFJ6xaqeSo-31" value="" style="edgeStyle=orthogonalEdgeStyle;rounded=0;orthogonalLoop=1;jettySize=auto;html=1;" edge="1" parent="1" source="eD_aYgl7-XiFJ6xaqeSo-26" target="eD_aYgl7-XiFJ6xaqeSo-33">
          <mxGeometry relative="1" as="geometry">
            <mxPoint x="525" y="980" as="targetPoint" />
          </mxGeometry>
        </mxCell>
        <mxCell id="eD_aYgl7-XiFJ6xaqeSo-32" value="false" style="edgeLabel;html=1;align=center;verticalAlign=middle;resizable=0;points=[];" vertex="1" connectable="0" parent="eD_aYgl7-XiFJ6xaqeSo-31">
          <mxGeometry x="-0.3533" relative="1" as="geometry">
            <mxPoint as="offset" />
          </mxGeometry>
        </mxCell>
        <mxCell id="eD_aYgl7-XiFJ6xaqeSo-26" value="i&amp;lt;n" style="rhombus;whiteSpace=wrap;html=1;" vertex="1" parent="1">
          <mxGeometry x="385" y="950" width="80" height="60" as="geometry" />
        </mxCell>
        <mxCell id="eD_aYgl7-XiFJ6xaqeSo-35" value="" style="edgeStyle=orthogonalEdgeStyle;rounded=0;orthogonalLoop=1;jettySize=auto;html=1;" edge="1" parent="1" source="eD_aYgl7-XiFJ6xaqeSo-33" target="eD_aYgl7-XiFJ6xaqeSo-34">
          <mxGeometry relative="1" as="geometry" />
        </mxCell>
        <mxCell id="eD_aYgl7-XiFJ6xaqeSo-33" value="sum" style="shape=parallelogram;perimeter=parallelogramPerimeter;whiteSpace=wrap;html=1;fixedSize=1;" vertex="1" parent="1">
          <mxGeometry x="540" y="950" width="120" height="60" as="geometry" />
        </mxCell>
        <mxCell id="eD_aYgl7-XiFJ6xaqeSo-34" value="end" style="ellipse;whiteSpace=wrap;html=1;" vertex="1" parent="1">
          <mxGeometry x="730" y="945" width="110" height="70" as="geometry" />
        </mxCell>
      </root>
    </mxGraphModel>
  </diagram>
  <diagram id="cVtmnc8hSsYGONe2sbIb" name="Page-3">
    <mxGraphModel dx="1050" dy="629" grid="1" gridSize="10" guides="1" tooltips="1" connect="1" arrows="1" fold="1" page="1" pageScale="1" pageWidth="850" pageHeight="1100" math="0" shadow="0">
      <root>
        <mxCell id="0" />
        <mxCell id="1" parent="0" />
        <mxCell id="x7Pt24q9g2Ui95YCJDhI-3" value="" style="edgeStyle=orthogonalEdgeStyle;rounded=0;orthogonalLoop=1;jettySize=auto;html=1;" edge="1" parent="1" source="x7Pt24q9g2Ui95YCJDhI-1" target="x7Pt24q9g2Ui95YCJDhI-2">
          <mxGeometry relative="1" as="geometry" />
        </mxCell>
        <mxCell id="x7Pt24q9g2Ui95YCJDhI-1" value="end" style="ellipse;whiteSpace=wrap;html=1;" vertex="1" parent="1">
          <mxGeometry x="365" y="40" width="120" height="60" as="geometry" />
        </mxCell>
        <mxCell id="x7Pt24q9g2Ui95YCJDhI-5" value="" style="edgeStyle=orthogonalEdgeStyle;rounded=0;orthogonalLoop=1;jettySize=auto;html=1;" edge="1" parent="1" source="x7Pt24q9g2Ui95YCJDhI-2" target="x7Pt24q9g2Ui95YCJDhI-4">
          <mxGeometry relative="1" as="geometry" />
        </mxCell>
        <mxCell id="x7Pt24q9g2Ui95YCJDhI-2" value="findNumber,n,i,sum=0&lt;br&gt;numbers[n]" style="shape=parallelogram;perimeter=parallelogramPerimeter;whiteSpace=wrap;html=1;fixedSize=1;" vertex="1" parent="1">
          <mxGeometry x="353" y="130" width="145" height="60" as="geometry" />
        </mxCell>
        <mxCell id="x7Pt24q9g2Ui95YCJDhI-7" value="" style="edgeStyle=orthogonalEdgeStyle;rounded=0;orthogonalLoop=1;jettySize=auto;html=1;" edge="1" parent="1" source="x7Pt24q9g2Ui95YCJDhI-4" target="x7Pt24q9g2Ui95YCJDhI-6">
          <mxGeometry relative="1" as="geometry" />
        </mxCell>
        <mxCell id="x7Pt24q9g2Ui95YCJDhI-4" value="nhap so luong phan tu co trong mang&lt;br&gt;va gia tri cac phan tu" style="whiteSpace=wrap;html=1;" vertex="1" parent="1">
          <mxGeometry x="365" y="230" width="120" height="60" as="geometry" />
        </mxCell>
        <mxCell id="x7Pt24q9g2Ui95YCJDhI-9" value="" style="edgeStyle=orthogonalEdgeStyle;rounded=0;orthogonalLoop=1;jettySize=auto;html=1;" edge="1" parent="1" source="x7Pt24q9g2Ui95YCJDhI-6" target="x7Pt24q9g2Ui95YCJDhI-8">
          <mxGeometry relative="1" as="geometry" />
        </mxCell>
        <mxCell id="x7Pt24q9g2Ui95YCJDhI-6" value="nhap vao so can tim&lt;br&gt;findNumber=..." style="whiteSpace=wrap;html=1;" vertex="1" parent="1">
          <mxGeometry x="365" y="330" width="120" height="60" as="geometry" />
        </mxCell>
        <mxCell id="x7Pt24q9g2Ui95YCJDhI-11" value="" style="edgeStyle=orthogonalEdgeStyle;rounded=0;orthogonalLoop=1;jettySize=auto;html=1;" edge="1" parent="1" source="x7Pt24q9g2Ui95YCJDhI-8" target="x7Pt24q9g2Ui95YCJDhI-10">
          <mxGeometry relative="1" as="geometry" />
        </mxCell>
        <mxCell id="x7Pt24q9g2Ui95YCJDhI-8" value="i=0" style="whiteSpace=wrap;html=1;" vertex="1" parent="1">
          <mxGeometry x="365.5" y="420" width="120" height="60" as="geometry" />
        </mxCell>
        <mxCell id="x7Pt24q9g2Ui95YCJDhI-13" value="" style="edgeStyle=orthogonalEdgeStyle;rounded=0;orthogonalLoop=1;jettySize=auto;html=1;" edge="1" parent="1" source="x7Pt24q9g2Ui95YCJDhI-10" target="x7Pt24q9g2Ui95YCJDhI-12">
          <mxGeometry relative="1" as="geometry" />
        </mxCell>
        <mxCell id="x7Pt24q9g2Ui95YCJDhI-23" value="true" style="edgeLabel;html=1;align=center;verticalAlign=middle;resizable=0;points=[];" vertex="1" connectable="0" parent="x7Pt24q9g2Ui95YCJDhI-13">
          <mxGeometry x="-0.5359" y="1" relative="1" as="geometry">
            <mxPoint as="offset" />
          </mxGeometry>
        </mxCell>
        <mxCell id="x7Pt24q9g2Ui95YCJDhI-21" style="edgeStyle=orthogonalEdgeStyle;rounded=0;orthogonalLoop=1;jettySize=auto;html=1;exitX=1;exitY=0.5;exitDx=0;exitDy=0;" edge="1" parent="1" source="x7Pt24q9g2Ui95YCJDhI-10" target="x7Pt24q9g2Ui95YCJDhI-16">
          <mxGeometry relative="1" as="geometry">
            <Array as="points">
              <mxPoint x="526" y="540" />
              <mxPoint x="526" y="810" />
            </Array>
          </mxGeometry>
        </mxCell>
        <mxCell id="x7Pt24q9g2Ui95YCJDhI-24" value="false" style="edgeLabel;html=1;align=center;verticalAlign=middle;resizable=0;points=[];" vertex="1" connectable="0" parent="x7Pt24q9g2Ui95YCJDhI-21">
          <mxGeometry x="-0.0852" y="3" relative="1" as="geometry">
            <mxPoint as="offset" />
          </mxGeometry>
        </mxCell>
        <mxCell id="x7Pt24q9g2Ui95YCJDhI-10" value="numbers[i]==findNumber" style="rhombus;whiteSpace=wrap;html=1;" vertex="1" parent="1">
          <mxGeometry x="344.63" y="510" width="161.75" height="60" as="geometry" />
        </mxCell>
        <mxCell id="x7Pt24q9g2Ui95YCJDhI-15" value="" style="edgeStyle=orthogonalEdgeStyle;rounded=0;orthogonalLoop=1;jettySize=auto;html=1;" edge="1" parent="1" source="x7Pt24q9g2Ui95YCJDhI-12" target="x7Pt24q9g2Ui95YCJDhI-14">
          <mxGeometry relative="1" as="geometry" />
        </mxCell>
        <mxCell id="x7Pt24q9g2Ui95YCJDhI-12" value="in ra man hinh vi tri numbers[i]" style="whiteSpace=wrap;html=1;" vertex="1" parent="1">
          <mxGeometry x="365.505" y="600" width="120" height="60" as="geometry" />
        </mxCell>
        <mxCell id="x7Pt24q9g2Ui95YCJDhI-17" value="" style="edgeStyle=orthogonalEdgeStyle;rounded=0;orthogonalLoop=1;jettySize=auto;html=1;" edge="1" parent="1" source="x7Pt24q9g2Ui95YCJDhI-14" target="x7Pt24q9g2Ui95YCJDhI-16">
          <mxGeometry relative="1" as="geometry" />
        </mxCell>
        <mxCell id="x7Pt24q9g2Ui95YCJDhI-14" value="sum +=numberd[i]" style="whiteSpace=wrap;html=1;" vertex="1" parent="1">
          <mxGeometry x="365.505" y="690" width="120" height="60" as="geometry" />
        </mxCell>
        <mxCell id="x7Pt24q9g2Ui95YCJDhI-19" value="" style="edgeStyle=orthogonalEdgeStyle;rounded=0;orthogonalLoop=1;jettySize=auto;html=1;" edge="1" parent="1" source="x7Pt24q9g2Ui95YCJDhI-16" target="x7Pt24q9g2Ui95YCJDhI-18">
          <mxGeometry relative="1" as="geometry" />
        </mxCell>
        <mxCell id="x7Pt24q9g2Ui95YCJDhI-16" value="i++" style="whiteSpace=wrap;html=1;" vertex="1" parent="1">
          <mxGeometry x="364.995" y="780" width="120" height="60" as="geometry" />
        </mxCell>
        <mxCell id="x7Pt24q9g2Ui95YCJDhI-20" style="edgeStyle=orthogonalEdgeStyle;rounded=0;orthogonalLoop=1;jettySize=auto;html=1;exitX=0;exitY=0.5;exitDx=0;exitDy=0;" edge="1" parent="1" source="x7Pt24q9g2Ui95YCJDhI-18" target="x7Pt24q9g2Ui95YCJDhI-10">
          <mxGeometry relative="1" as="geometry">
            <Array as="points">
              <mxPoint x="320" y="905" />
              <mxPoint x="320" y="540" />
            </Array>
          </mxGeometry>
        </mxCell>
        <mxCell id="x7Pt24q9g2Ui95YCJDhI-22" value="true" style="edgeLabel;html=1;align=center;verticalAlign=middle;resizable=0;points=[];" vertex="1" connectable="0" parent="x7Pt24q9g2Ui95YCJDhI-20">
          <mxGeometry x="0.1719" y="-2" relative="1" as="geometry">
            <mxPoint as="offset" />
          </mxGeometry>
        </mxCell>
        <mxCell id="x7Pt24q9g2Ui95YCJDhI-26" value="" style="edgeStyle=orthogonalEdgeStyle;rounded=0;orthogonalLoop=1;jettySize=auto;html=1;" edge="1" parent="1" source="x7Pt24q9g2Ui95YCJDhI-18" target="x7Pt24q9g2Ui95YCJDhI-27">
          <mxGeometry relative="1" as="geometry">
            <mxPoint x="520" y="905" as="targetPoint" />
          </mxGeometry>
        </mxCell>
        <mxCell id="x7Pt24q9g2Ui95YCJDhI-18" value="i&amp;lt;n" style="rhombus;whiteSpace=wrap;html=1;" vertex="1" parent="1">
          <mxGeometry x="385" y="870" width="80" height="70" as="geometry" />
        </mxCell>
        <mxCell id="x7Pt24q9g2Ui95YCJDhI-29" value="" style="edgeStyle=orthogonalEdgeStyle;rounded=0;orthogonalLoop=1;jettySize=auto;html=1;" edge="1" parent="1" source="x7Pt24q9g2Ui95YCJDhI-27" target="x7Pt24q9g2Ui95YCJDhI-28">
          <mxGeometry relative="1" as="geometry" />
        </mxCell>
        <mxCell id="x7Pt24q9g2Ui95YCJDhI-27" value="sum" style="shape=parallelogram;perimeter=parallelogramPerimeter;whiteSpace=wrap;html=1;fixedSize=1;" vertex="1" parent="1">
          <mxGeometry x="560" y="875" width="120" height="60" as="geometry" />
        </mxCell>
        <mxCell id="x7Pt24q9g2Ui95YCJDhI-28" value="end" style="ellipse;whiteSpace=wrap;html=1;" vertex="1" parent="1">
          <mxGeometry x="710" y="865" width="130" height="80" as="geometry" />
        </mxCell>
      </root>
    </mxGraphModel>
  </diagram>
  <diagram id="llPLUhvBmXxYHj0ijUL4" name="Page-4">
    <mxGraphModel dx="2100" dy="1258" grid="1" gridSize="10" guides="1" tooltips="1" connect="1" arrows="1" fold="1" page="1" pageScale="1" pageWidth="850" pageHeight="1100" math="0" shadow="0">
      <root>
        <mxCell id="0" />
        <mxCell id="1" parent="0" />
        <mxCell id="EyvinrI9zty4FODgNNqc-3" value="" style="edgeStyle=orthogonalEdgeStyle;rounded=0;orthogonalLoop=1;jettySize=auto;html=1;" parent="1" source="EyvinrI9zty4FODgNNqc-1" target="EyvinrI9zty4FODgNNqc-2" edge="1">
          <mxGeometry relative="1" as="geometry" />
        </mxCell>
        <mxCell id="EyvinrI9zty4FODgNNqc-1" value="start" style="ellipse;whiteSpace=wrap;html=1;" parent="1" vertex="1">
          <mxGeometry x="360" y="40" width="120" height="80" as="geometry" />
        </mxCell>
        <mxCell id="EyvinrI9zty4FODgNNqc-5" value="" style="edgeStyle=orthogonalEdgeStyle;rounded=0;orthogonalLoop=1;jettySize=auto;html=1;" parent="1" source="EyvinrI9zty4FODgNNqc-2" target="EyvinrI9zty4FODgNNqc-4" edge="1">
          <mxGeometry relative="1" as="geometry" />
        </mxCell>
        <mxCell id="EyvinrI9zty4FODgNNqc-2" value="n,i,addIndex,addValue&lt;br&gt;oldNumbers[n]&lt;br&gt;newNumbers[n+1]" style="shape=parallelogram;perimeter=parallelogramPerimeter;whiteSpace=wrap;html=1;fixedSize=1;" parent="1" vertex="1">
          <mxGeometry x="340" y="160" width="160" height="60" as="geometry" />
        </mxCell>
        <mxCell id="EyvinrI9zty4FODgNNqc-7" value="" style="edgeStyle=orthogonalEdgeStyle;rounded=0;orthogonalLoop=1;jettySize=auto;html=1;" parent="1" source="EyvinrI9zty4FODgNNqc-4" target="EyvinrI9zty4FODgNNqc-6" edge="1">
          <mxGeometry relative="1" as="geometry" />
        </mxCell>
        <mxCell id="EyvinrI9zty4FODgNNqc-4" value="nhap so luong phan tu cua mang oldNumbers[n],newNumbers[n+1]" style="whiteSpace=wrap;html=1;" parent="1" vertex="1">
          <mxGeometry x="330" y="250" width="180" height="60" as="geometry" />
        </mxCell>
        <mxCell id="EyvinrI9zty4FODgNNqc-9" value="" style="edgeStyle=orthogonalEdgeStyle;rounded=0;orthogonalLoop=1;jettySize=auto;html=1;" parent="1" source="EyvinrI9zty4FODgNNqc-6" target="EyvinrI9zty4FODgNNqc-8" edge="1">
          <mxGeometry relative="1" as="geometry" />
        </mxCell>
        <mxCell id="EyvinrI9zty4FODgNNqc-6" value="nhap vi tri(addIndex) va chu so(addValue) ma ban muon chen" style="whiteSpace=wrap;html=1;" parent="1" vertex="1">
          <mxGeometry x="337.5" y="340" width="165" height="60" as="geometry" />
        </mxCell>
        <mxCell id="w6IRbaG8nuMVJ-DjH5Kt-1" style="edgeStyle=orthogonalEdgeStyle;rounded=0;orthogonalLoop=1;jettySize=auto;html=1;exitX=0.5;exitY=1;exitDx=0;exitDy=0;" edge="1" parent="1" source="EyvinrI9zty4FODgNNqc-8" target="EyvinrI9zty4FODgNNqc-10">
          <mxGeometry relative="1" as="geometry" />
        </mxCell>
        <mxCell id="EyvinrI9zty4FODgNNqc-8" value="i=0" style="whiteSpace=wrap;html=1;" parent="1" vertex="1">
          <mxGeometry x="360" y="430" width="120" height="60" as="geometry" />
        </mxCell>
        <mxCell id="w6IRbaG8nuMVJ-DjH5Kt-3" value="" style="edgeStyle=orthogonalEdgeStyle;rounded=0;orthogonalLoop=1;jettySize=auto;html=1;" edge="1" parent="1" source="EyvinrI9zty4FODgNNqc-10" target="w6IRbaG8nuMVJ-DjH5Kt-2">
          <mxGeometry relative="1" as="geometry" />
        </mxCell>
        <mxCell id="EyvinrI9zty4FODgNNqc-10" value="newNumbers[i]=oldNumbers[i]" style="rounded=0;whiteSpace=wrap;html=1;" parent="1" vertex="1">
          <mxGeometry x="329" y="520" width="182" height="60" as="geometry" />
        </mxCell>
        <mxCell id="w6IRbaG8nuMVJ-DjH5Kt-5" value="" style="edgeStyle=orthogonalEdgeStyle;rounded=0;orthogonalLoop=1;jettySize=auto;html=1;" edge="1" parent="1" source="w6IRbaG8nuMVJ-DjH5Kt-2" target="w6IRbaG8nuMVJ-DjH5Kt-4">
          <mxGeometry relative="1" as="geometry" />
        </mxCell>
        <mxCell id="w6IRbaG8nuMVJ-DjH5Kt-2" value="i++" style="whiteSpace=wrap;html=1;rounded=0;" vertex="1" parent="1">
          <mxGeometry x="360" y="610" width="120" height="60" as="geometry" />
        </mxCell>
        <mxCell id="w6IRbaG8nuMVJ-DjH5Kt-6" style="edgeStyle=orthogonalEdgeStyle;rounded=0;orthogonalLoop=1;jettySize=auto;html=1;exitX=0;exitY=0.5;exitDx=0;exitDy=0;" edge="1" parent="1" source="w6IRbaG8nuMVJ-DjH5Kt-4" target="EyvinrI9zty4FODgNNqc-10">
          <mxGeometry relative="1" as="geometry">
            <Array as="points">
              <mxPoint x="280" y="740" />
              <mxPoint x="280" y="550" />
            </Array>
          </mxGeometry>
        </mxCell>
        <mxCell id="w6IRbaG8nuMVJ-DjH5Kt-8" value="true" style="edgeLabel;html=1;align=center;verticalAlign=middle;resizable=0;points=[];" vertex="1" connectable="0" parent="w6IRbaG8nuMVJ-DjH5Kt-6">
          <mxGeometry x="0.1316" y="2" relative="1" as="geometry">
            <mxPoint as="offset" />
          </mxGeometry>
        </mxCell>
        <mxCell id="w6IRbaG8nuMVJ-DjH5Kt-10" value="" style="edgeStyle=orthogonalEdgeStyle;rounded=0;orthogonalLoop=1;jettySize=auto;html=1;" edge="1" parent="1" source="w6IRbaG8nuMVJ-DjH5Kt-4" target="w6IRbaG8nuMVJ-DjH5Kt-9">
          <mxGeometry relative="1" as="geometry" />
        </mxCell>
        <mxCell id="w6IRbaG8nuMVJ-DjH5Kt-22" value="false" style="edgeLabel;html=1;align=center;verticalAlign=middle;resizable=0;points=[];" vertex="1" connectable="0" parent="w6IRbaG8nuMVJ-DjH5Kt-10">
          <mxGeometry x="0.256" relative="1" as="geometry">
            <mxPoint as="offset" />
          </mxGeometry>
        </mxCell>
        <mxCell id="w6IRbaG8nuMVJ-DjH5Kt-4" value="i&amp;lt;addIndex" style="rhombus;whiteSpace=wrap;html=1;rounded=0;" vertex="1" parent="1">
          <mxGeometry x="380" y="700" width="80" height="80" as="geometry" />
        </mxCell>
        <mxCell id="w6IRbaG8nuMVJ-DjH5Kt-12" value="" style="edgeStyle=orthogonalEdgeStyle;rounded=0;orthogonalLoop=1;jettySize=auto;html=1;" edge="1" parent="1" source="w6IRbaG8nuMVJ-DjH5Kt-9" target="w6IRbaG8nuMVJ-DjH5Kt-11">
          <mxGeometry relative="1" as="geometry" />
        </mxCell>
        <mxCell id="w6IRbaG8nuMVJ-DjH5Kt-9" value="newNumbers[addIndex]=addValue" style="whiteSpace=wrap;html=1;rounded=0;" vertex="1" parent="1">
          <mxGeometry x="325" y="810" width="190" height="60" as="geometry" />
        </mxCell>
        <mxCell id="w6IRbaG8nuMVJ-DjH5Kt-14" style="edgeStyle=orthogonalEdgeStyle;rounded=0;orthogonalLoop=1;jettySize=auto;html=1;exitX=0.5;exitY=1;exitDx=0;exitDy=0;" edge="1" parent="1" source="w6IRbaG8nuMVJ-DjH5Kt-11" target="w6IRbaG8nuMVJ-DjH5Kt-13">
          <mxGeometry relative="1" as="geometry" />
        </mxCell>
        <mxCell id="w6IRbaG8nuMVJ-DjH5Kt-11" value="i=addIndex+1" style="whiteSpace=wrap;html=1;rounded=0;" vertex="1" parent="1">
          <mxGeometry x="360" y="900" width="120" height="60" as="geometry" />
        </mxCell>
        <mxCell id="w6IRbaG8nuMVJ-DjH5Kt-16" value="" style="edgeStyle=orthogonalEdgeStyle;rounded=0;orthogonalLoop=1;jettySize=auto;html=1;" edge="1" parent="1" source="w6IRbaG8nuMVJ-DjH5Kt-13" target="w6IRbaG8nuMVJ-DjH5Kt-17">
          <mxGeometry relative="1" as="geometry">
            <mxPoint x="420" y="1110" as="targetPoint" />
          </mxGeometry>
        </mxCell>
        <mxCell id="w6IRbaG8nuMVJ-DjH5Kt-13" value="newNumbers[i]=oldNumbers[i-1]" style="rounded=0;whiteSpace=wrap;html=1;" vertex="1" parent="1">
          <mxGeometry x="329" y="980" width="182" height="60" as="geometry" />
        </mxCell>
        <mxCell id="w6IRbaG8nuMVJ-DjH5Kt-19" value="" style="edgeStyle=orthogonalEdgeStyle;rounded=0;orthogonalLoop=1;jettySize=auto;html=1;" edge="1" parent="1" source="w6IRbaG8nuMVJ-DjH5Kt-17" target="w6IRbaG8nuMVJ-DjH5Kt-18">
          <mxGeometry relative="1" as="geometry" />
        </mxCell>
        <mxCell id="w6IRbaG8nuMVJ-DjH5Kt-17" value="i++" style="rounded=0;whiteSpace=wrap;html=1;" vertex="1" parent="1">
          <mxGeometry x="360" y="1070" width="120" height="60" as="geometry" />
        </mxCell>
        <mxCell id="w6IRbaG8nuMVJ-DjH5Kt-20" style="edgeStyle=orthogonalEdgeStyle;rounded=0;orthogonalLoop=1;jettySize=auto;html=1;exitX=0;exitY=0.5;exitDx=0;exitDy=0;" edge="1" parent="1" source="w6IRbaG8nuMVJ-DjH5Kt-18" target="w6IRbaG8nuMVJ-DjH5Kt-13">
          <mxGeometry relative="1" as="geometry">
            <Array as="points">
              <mxPoint x="280" y="1240" />
              <mxPoint x="280" y="1010" />
            </Array>
          </mxGeometry>
        </mxCell>
        <mxCell id="w6IRbaG8nuMVJ-DjH5Kt-21" value="true" style="edgeLabel;html=1;align=center;verticalAlign=middle;resizable=0;points=[];" vertex="1" connectable="0" parent="w6IRbaG8nuMVJ-DjH5Kt-20">
          <mxGeometry x="0.0649" y="3" relative="1" as="geometry">
            <mxPoint as="offset" />
          </mxGeometry>
        </mxCell>
        <mxCell id="w6IRbaG8nuMVJ-DjH5Kt-24" value="" style="edgeStyle=orthogonalEdgeStyle;rounded=0;orthogonalLoop=1;jettySize=auto;html=1;" edge="1" parent="1" source="w6IRbaG8nuMVJ-DjH5Kt-18" target="w6IRbaG8nuMVJ-DjH5Kt-23">
          <mxGeometry relative="1" as="geometry" />
        </mxCell>
        <mxCell id="w6IRbaG8nuMVJ-DjH5Kt-18" value="i&amp;lt;n+1" style="rhombus;whiteSpace=wrap;html=1;rounded=0;" vertex="1" parent="1">
          <mxGeometry x="380" y="1200" width="80" height="80" as="geometry" />
        </mxCell>
        <mxCell id="w6IRbaG8nuMVJ-DjH5Kt-26" value="" style="edgeStyle=orthogonalEdgeStyle;rounded=0;orthogonalLoop=1;jettySize=auto;html=1;" edge="1" parent="1" source="w6IRbaG8nuMVJ-DjH5Kt-23" target="w6IRbaG8nuMVJ-DjH5Kt-25">
          <mxGeometry relative="1" as="geometry" />
        </mxCell>
        <mxCell id="w6IRbaG8nuMVJ-DjH5Kt-23" value="in ra man hinh cac gia tri cua newNumbers" style="shape=parallelogram;perimeter=parallelogramPerimeter;whiteSpace=wrap;html=1;fixedSize=1;rounded=0;" vertex="1" parent="1">
          <mxGeometry x="350" y="1310" width="140" height="60" as="geometry" />
        </mxCell>
        <mxCell id="w6IRbaG8nuMVJ-DjH5Kt-25" value="end" style="ellipse;whiteSpace=wrap;html=1;rounded=0;" vertex="1" parent="1">
          <mxGeometry x="365" y="1420" width="110" height="60" as="geometry" />
        </mxCell>
      </root>
    </mxGraphModel>
  </diagram>
  <diagram id="Gi9yONw-20LOcuDzmxFh" name="Page-5">
    <mxGraphModel dx="1050" dy="629" grid="1" gridSize="10" guides="1" tooltips="1" connect="1" arrows="1" fold="1" page="1" pageScale="1" pageWidth="850" pageHeight="1100" math="0" shadow="0">
      <root>
        <mxCell id="0" />
        <mxCell id="1" parent="0" />
      </root>
    </mxGraphModel>
  </diagram>
</mxfile>
